<svg width="32" height="32" viewBox="0 0 32 32" fill="none" xmlns="http://www.w3.org/2000/svg">
  <rect width="32" height="32" rx="4" fill="#2d5a27"/>
  <rect x="2" y="2" width="28" height="28" rx="2" fill="#f0f8f0"/>
  
  <!-- 9x9 grid -->
  <g stroke="#2d5a27" stroke-width="0.5" fill="none">
    <!-- Vertical lines -->
    <line x1="5.33" y1="2" x2="5.33" y2="30"/>
    <line x1="8.67" y1="2" x2="8.67" y2="30"/>
    <line x1="12" y1="2" x2="12" y2="30"/>
    <line x1="15.33" y1="2" x2="15.33" y2="30"/>
    <line x1="18.67" y1="2" x2="18.67" y2="30"/>
    <line x1="22" y1="2" x2="22" y2="30"/>
    <line x1="25.33" y1="2" x2="25.33" y2="30"/>
    <line x1="28.67" y1="2" x2="28.67" y2="30"/>
    
    <!-- Horizontal lines -->
    <line x1="2" y1="5.33" x2="30" y2="5.33"/>
    <line x1="2" y1="8.67" x2="30" y2="8.67"/>
    <line x1="2" y1="12" x2="30" y2="12"/>
    <line x1="2" y1="15.33" x2="30" y2="15.33"/>
    <line x1="2" y1="18.67" x2="30" y2="18.67"/>
    <line x1="2" y1="22" x2="30" y2="22"/>
    <line x1="2" y1="25.33" x2="30" y2="25.33"/>
    <line x1="2" y1="28.67" x2="30" y2="28.67"/>
  </g>
  
  <!-- Bold 3x3 grid lines -->
  <g stroke="#2d5a27" stroke-width="1" fill="none">
    <line x1="12" y1="2" x2="12" y2="30"/>
    <line x1="22" y1="2" x2="22" y2="30"/>
    <line x1="2" y1="12" x2="30" y2="12"/>
    <line x1="2" y1="22" x2="30" y2="22"/>
  </g>
  
  <!-- Sample numbers -->
  <text x="7" y="9" font-family="Arial, sans-serif" font-size="4" font-weight="bold" fill="#2d5a27" text-anchor="middle">9</text>
  <text x="17" y="9" font-family="Arial, sans-serif" font-size="4" font-weight="bold" fill="#2d5a27" text-anchor="middle">9</text>
  <text x="7" y="19" font-family="Arial, sans-serif" font-size="4" font-weight="bold" fill="#6b9b37" text-anchor="middle">5</text>
  <text x="25" y="19" font-family="Arial, sans-serif" font-size="4" font-weight="bold" fill="#6b9b37" text-anchor="middle">3</text>
</svg>
